<?xml version="1.0" standalone="no"?>
<!DOCTYPE svg PUBLIC "-//W3C//DTD SVG 20010904//EN"
 "http://www.w3.org/TR/2001/REC-SVG-20010904/DTD/svg10.dtd">
<svg version="1.0" xmlns="http://www.w3.org/2000/svg"
 width="300.000000pt" height="65.000000pt" viewBox="0 0 300.000000 65.000000"
 preserveAspectRatio="xMidYMid meet">
<metadata>
Created by potrace 1.10, written by Peter Selinger 2001-2011
</metadata>
<g transform="translate(0.000000,65.000000) scale(0.100000,-0.100000)"
fill="#000000" stroke="none">
<path d="M1361 474 c-30 -8 -57 -16 -59 -19 -2 -2 0 -21 5 -42 7 -31 14 -39
36 -41 27 -3 27 -4 27 -78 l0 -74 100 0 100 0 0 75 c0 72 1 75 24 75 18 0 25
7 30 28 4 15 9 34 12 43 4 13 -9 20 -61 33 -59 15 -68 15 -81 1 -20 -19 -43
-19 -50 0 -7 18 -13 18 -83 -1z m108 -34 c8 0 22 7 31 15 13 12 24 12 56 4 65
-17 64 -16 55 -41 -6 -17 -15 -22 -35 -20 l-26 3 0 -80 0 -81 -80 0 -79 0 -3
78 c-3 76 -3 77 -30 80 -16 2 -28 9 -28 18 0 8 0 17 -1 22 0 4 19 12 43 18 34
8 47 8 63 -3 11 -7 26 -13 34 -13z"/>
<path d="M380 429 c-37 -5 -41 -7 -22 -14 20 -7 22 -14 22 -71 0 -57 -2 -64
-20 -64 -11 0 -20 -4 -20 -10 0 -5 23 -10 51 -10 31 0 48 4 44 10 -3 6 -13 10
-21 10 -9 0 -14 11 -14 30 0 28 2 30 40 30 38 0 40 -2 40 -30 0 -20 -5 -30
-15 -30 -8 0 -15 -4 -15 -10 0 -5 20 -10 45 -10 46 0 61 14 25 23 -17 4 -20
14 -20 61 0 45 4 57 20 66 30 16 17 26 -29 22 -38 -4 -60 -22 -26 -22 9 0 15
-9 15 -25 0 -22 -4 -25 -40 -25 -36 0 -40 3 -40 25 0 15 6 25 14 25 17 0 30
17 19 22 -5 2 -28 1 -53 -3z"/>
<path d="M554 431 c-9 -9 -3 -19 14 -23 25 -7 24 -121 -1 -126 -10 -2 -17 -8
-17 -13 0 -6 32 -9 77 -7 l77 3 1 32 c0 39 -19 45 -23 8 -3 -21 -8 -25 -38
-25 -31 0 -34 2 -34 30 0 20 5 30 15 30 8 0 15 -6 15 -14 0 -8 5 -18 10 -21 6
-4 10 13 10 44 0 28 -4 51 -10 51 -5 0 -10 -9 -10 -20 0 -11 -7 -20 -15 -20
-9 0 -15 9 -15 25 0 22 4 25 35 25 31 0 35 -3 35 -25 0 -14 5 -25 10 -25 6 0
10 15 10 34 l0 34 -71 4 c-39 2 -73 1 -75 -1z"/>
<path d="M833 416 c-23 -20 -28 -32 -28 -71 0 -39 5 -51 28 -71 15 -13 36 -24
46 -24 26 0 71 38 71 61 0 27 -19 24 -30 -6 -9 -24 -19 -29 -50 -25 -50 6 -54
115 -5 134 23 8 55 -11 55 -34 0 -10 5 -22 10 -25 6 -4 10 11 10 37 l0 43 -40
2 c-29 2 -47 -4 -67 -21z"/>
<path d="M963 427 c-3 -5 4 -11 16 -14 19 -5 21 -13 21 -69 0 -49 -3 -64 -14
-64 -8 0 -18 -4 -21 -10 -4 -6 23 -10 75 -10 l81 0 -3 38 c-3 39 -23 47 -23 9
0 -18 -6 -23 -37 -25 l-38 -3 0 64 c0 58 2 65 22 70 12 4 19 9 15 13 -9 10
-88 11 -94 1z"/>
<path d="M1166 419 c-22 -17 -26 -28 -26 -70 0 -105 97 -136 136 -43 17 40 10
79 -19 112 -26 28 -56 28 -91 1z m74 -19 c22 -22 25 -54 10 -94 -7 -20 -16
-26 -40 -26 -33 0 -50 26 -50 76 0 24 31 64 50 64 6 0 19 -9 30 -20z"/>
<path d="M1754 431 c-9 -10 -3 -19 16 -24 12 -3 20 -14 20 -26 0 -18 -6 -21
-40 -21 -36 0 -40 3 -40 25 0 16 6 25 15 25 8 0 15 5 15 10 0 6 -20 10 -45 10
-25 0 -45 -4 -45 -10 0 -5 7 -10 15 -10 12 0 15 -14 15 -65 0 -51 -3 -65 -15
-65 -8 0 -15 -4 -15 -10 0 -5 20 -10 45 -10 25 0 45 5 45 10 0 6 -7 10 -15 10
-10 0 -15 10 -15 30 0 28 2 30 40 30 36 0 40 -2 40 -26 0 -17 -6 -28 -20 -31
-36 -9 -21 -23 25 -23 25 0 45 5 45 10 0 6 -7 10 -15 10 -12 0 -15 14 -15 65
0 51 3 65 15 65 8 0 15 4 15 9 0 9 -77 20 -86 12z"/>
<path d="M1898 432 c-36 -3 -55 -22 -23 -22 12 0 15 -14 15 -65 0 -51 -3 -65
-15 -65 -8 0 -15 -4 -15 -10 0 -5 20 -10 45 -10 46 0 61 14 25 23 -17 4 -20
14 -20 66 0 46 3 61 14 61 17 0 31 17 19 22 -5 2 -25 2 -45 0z"/>
<path d="M2064 428 c-3 -4 5 -12 16 -18 17 -9 20 -20 19 -68 l0 -57 -37 73
c-34 67 -38 72 -69 72 -18 0 -33 -4 -33 -10 0 -5 7 -10 15 -10 12 0 15 -14 15
-65 0 -51 -3 -65 -15 -65 -8 0 -15 -4 -15 -10 0 -5 20 -10 45 -10 25 0 45 5
45 10 0 6 -9 10 -20 10 -18 0 -20 6 -19 63 l0 62 37 -72 c25 -50 42 -73 54
-73 16 0 18 10 18 74 0 59 3 75 16 80 9 4 14 9 11 13 -9 8 -78 10 -83 1z"/>
<path d="M2197 419 c-72 -56 -18 -193 64 -162 18 7 29 8 29 2 0 -6 5 -7 11 -4
6 4 7 19 4 36 -5 21 -2 31 9 35 31 12 16 24 -29 24 -25 0 -45 -4 -45 -10 0 -5
9 -10 20 -10 26 0 27 -36 1 -50 -37 -19 -71 12 -71 65 0 33 14 61 35 69 23 9
55 -11 55 -34 0 -11 5 -20 10 -20 6 0 10 14 10 30 0 17 0 33 0 36 0 4 -17 8
-39 10 -28 3 -46 -2 -64 -17z"/>
<path d="M2462 433 c-20 -8 -42 -59 -42 -98 0 -62 66 -103 115 -71 14 9 25 23
25 31 0 8 0 18 1 22 2 19 -20 11 -23 -8 -4 -30 -40 -42 -67 -23 -28 20 -30 93
-2 118 25 23 59 13 67 -20 9 -37 24 -29 24 14 0 37 0 38 -42 39 -24 1 -49 -1
-56 -4z"/>
<path d="M2616 419 c-22 -17 -26 -28 -26 -70 0 -40 5 -55 25 -74 29 -30 54
-32 88 -5 60 48 33 169 -39 170 -12 0 -33 -9 -48 -21z m74 -19 c40 -40 20
-120 -31 -120 -23 0 -32 6 -40 27 -13 35 -3 90 19 102 24 15 29 14 52 -9z"/>
<path d="M180 396 c0 -42 17 -57 22 -19 2 17 10 29 21 31 15 3 17 -5 17 -62 0
-52 -3 -66 -15 -66 -8 0 -15 -4 -15 -10 0 -5 20 -10 45 -10 25 0 45 5 45 10 0
6 -7 10 -15 10 -12 0 -15 14 -15 65 0 58 2 65 20 65 15 0 20 -7 20 -25 0 -14
5 -25 10 -25 6 0 10 16 10 35 l0 35 -75 0 -75 0 0 -34z"/>
<path d="M2770 276 c0 -8 4 -17 9 -20 11 -7 33 18 24 27 -12 12 -33 7 -33 -7z"/>
</g>
</svg>
